<svg width="90.000000" height="74.000000" viewBox="0 0 90 74" fill="none" xmlns="http://www.w3.org/2000/svg" xmlns:xlink="http://www.w3.org/1999/xlink">
	<desc>
			Created with Pixso.
	</desc>
	<defs>
		<clipPath id="clip55_203">
			<rect id="Logo" rx="0.000000" width="89.000000" height="73.000000" transform="translate(0.500000 0.500000)" fill="white" fill-opacity="0"/>
		</clipPath>
	</defs>
	<rect id="Logo" rx="0.000000" width="89.000000" height="73.000000" transform="translate(0.500000 0.500000)" fill="#FFFFFF" fill-opacity="0"/>
	<g clip-path="url(#clip55_203)">
		<path id="Vector" d="M11.09 63.19L11.09 61.3L12.31 60.1L16.26 60.1L16.26 58.69L15.51 57.96L12.99 57.96L12.25 58.69L12.25 59.3L11.15 59.3L11.15 58.38L12.51 57.02L15.97 57.02L17.34 58.38L17.34 64.4L16.29 64.4L16.29 63.1L14.92 64.4L12.31 64.4L11.09 63.19L11.09 63.19ZM14.7 63.45L16.26 61.95L16.26 61.05L12.78 61.05L12.19 61.63L12.19 62.87L12.78 63.45L14.7 63.45Z" fill="#000000" fill-opacity="1.000000" fill-rule="nonzero"/>
		<path id="Vector" d="M19.5 57.02L20.57 57.02L20.57 58.34L21.89 57.02L23.8 57.02L23.8 57.99L22.17 57.99L20.6 59.57L20.6 64.4L19.5 64.4L19.5 57.02L19.5 57.02Z" fill="#000000" fill-opacity="1.000000" fill-rule="nonzero"/>
		<path id="Vector" d="M24.69 63.04L24.69 58.38L26.06 57.01L29.63 57.01L30.99 58.38L30.99 59.28L29.89 59.28L29.89 58.72L29.15 57.99L26.54 57.99L25.79 58.72L25.79 62.7L26.54 63.42L29.15 63.42L29.89 62.7L29.89 62.13L30.99 62.13L30.99 63.04L29.63 64.4L26.06 64.4L24.69 63.04Z" fill="#000000" fill-opacity="1.000000" fill-rule="nonzero"/>
		<path id="Vector" d="M32.78 53.81L33.88 53.81L33.88 58.56L35.42 57.02L37.72 57.02L39.09 58.38L39.09 64.4L37.99 64.4L37.99 58.72L37.25 57.99L35.72 57.99L33.88 59.83L33.88 64.4L32.78 64.4L32.78 53.81L32.78 53.81Z" fill="#000000" fill-opacity="1.000000" fill-rule="nonzero"/>
		<path id="Vector" d="M41.17 55.32L41.17 54.67L41.61 54.23L42.27 54.23L42.71 54.67L42.71 55.32L42.27 55.77L41.61 55.77L41.17 55.32ZM41.39 57.02L42.49 57.02L42.49 64.4L41.39 64.4L41.39 57.02Z" fill="#000000" fill-opacity="1.000000" fill-rule="nonzero"/>
		<path id="Vector" d="M45.54 63.04L45.54 57.98L44.2 57.98L44.2 57.02L45.57 57.02L45.57 54.61L46.64 54.61L46.64 57.02L48.95 57.02L48.95 57.98L46.64 57.98L46.64 62.7L47.38 63.44L48.95 63.44L48.95 64.4L46.9 64.4L45.54 63.04Z" fill="#000000" fill-opacity="1.000000" fill-rule="nonzero"/>
		<path id="Vector" d="M50.29 63.04L50.29 58.38L51.66 57.01L55.39 57.01L56.77 58.38L56.77 61.03L51.39 61.03L51.39 62.7L52.13 63.42L54.91 63.42L55.65 62.7L55.65 62.13L56.75 62.13L56.75 63.04L55.39 64.4L51.66 64.4L50.29 63.04ZM55.67 60.09L55.67 58.72L54.93 57.99L52.13 57.99L51.39 58.72L51.39 60.09L55.67 60.09L55.67 60.09Z" fill="#000000" fill-opacity="1.000000" fill-rule="nonzero"/>
		<path id="Vector" d="M58.62 63.04L58.62 58.38L59.99 57.01L63.56 57.01L64.92 58.38L64.92 59.28L63.82 59.28L63.82 58.72L63.08 57.99L60.47 57.99L59.72 58.72L59.72 62.7L60.47 63.42L63.08 63.42L63.82 62.7L63.82 62.13L64.92 62.13L64.92 63.04L63.56 64.4L59.99 64.4L58.62 63.04Z" fill="#000000" fill-opacity="1.000000" fill-rule="nonzero"/>
		<path id="Vector" d="M67.37 63.04L67.37 57.98L66.04 57.98L66.04 57.02L67.4 57.02L67.4 54.61L68.47 54.61L68.47 57.02L70.79 57.02L70.79 57.98L68.47 57.98L68.47 62.7L69.22 63.44L70.79 63.44L70.79 64.4L68.74 64.4L67.37 63.04Z" fill="#000000" fill-opacity="1.000000" fill-rule="nonzero"/>
		<path id="Vector" d="M72.05 63.19L72.05 62.27L73.15 62.27L73.15 62.87L73.75 63.45L76.48 63.45L77.07 62.87L77.07 61.73L76.48 61.14L73.29 61.14L72.11 59.97L72.11 58.23L73.33 57.02L76.81 57.02L78.03 58.23L78.03 59.15L76.93 59.15L76.93 58.54L76.33 57.96L73.81 57.96L73.21 58.54L73.21 59.63L73.81 60.22L76.95 60.22L78.17 61.43L78.17 63.18L76.95 64.4L73.27 64.4L72.05 63.18L72.05 63.19Z" fill="#000000" fill-opacity="1.000000" fill-rule="nonzero"/>
		<path id="Vector" d="M45.71 9.55L71.34 9.55L78.2 16.41L78.2 42.68L71.34 49.53L45.71 49.53L45.71 9.55ZM67.5 42.91L70.42 39.99L70.42 19.09L67.5 16.18L53.49 16.18L53.49 42.91L67.5 42.91Z" fill="#000000" fill-opacity="1.000000" fill-rule="nonzero"/>
		<path id="Vector" d="M39.99 16.12L39.99 9.55L17.5 9.55L11.05 16.87L11.05 41.79L17.08 49.53L39.99 49.53L39.99 42.96L18.82 42.96L18.82 32.68L38.33 32.68L38.33 26.23L18.82 26.23L18.82 16.12L39.99 16.12Z" fill="#000000" fill-opacity="1.000000" fill-rule="nonzero"/>
		<path id="Vector" d="M90.04 74.01L79.98 74.01L79.98 72.7L88.73 72.7L88.73 63.96L90.04 63.96L90.04 74.01Z" fill="#000000" fill-opacity="1.000000" fill-rule="nonzero"/>
		<path id="Vector" d="M9.36 74.01L-0.05 74.01L-0.05 64.62L1.26 64.62L1.26 72.7L9.36 72.7L9.36 74.01Z" fill="#000000" fill-opacity="1.000000" fill-rule="nonzero"/>
		<path id="Vector" d="M1.26 10.02L-0.05 10.02L-0.05 -0.05L10.04 -0.05L10.04 1.25L1.26 1.25L1.26 10.02Z" fill="#000000" fill-opacity="1.000000" fill-rule="nonzero"/>
		<path id="Vector" d="M90.04 10.68L88.73 10.68L88.73 1.25L79.29 1.25L79.29 -0.05L90.04 -0.05L90.04 10.68Z" fill="#000000" fill-opacity="1.000000" fill-rule="nonzero"/>
	</g>
</svg>
