<svg width="40.000000" height="40.000000" viewBox="0 0 40 40" fill="none" xmlns="http://www.w3.org/2000/svg" xmlns:xlink="http://www.w3.org/1999/xlink">
	<desc>
			Created with Pixso.
	</desc>
	<defs>
		<clipPath id="clip55_196">
			<rect id="Instagram icon" rx="0.000000" width="39.000000" height="39.000000" transform="translate(0.500000 0.500000)" fill="white" fill-opacity="0"/>
		</clipPath>
	</defs>
	<rect id="Instagram icon" rx="0.000000" width="39.000000" height="39.000000" transform="translate(0.500000 0.500000)" fill="#FFFFFF" fill-opacity="0"/>
	<g clip-path="url(#clip55_196)">
		<path id="Vector" d="M14.44 20C14.44 19.27 14.58 18.54 14.86 17.87C15.14 17.19 15.55 16.58 16.07 16.07C16.58 15.55 17.2 15.14 17.87 14.86C18.54 14.58 19.27 14.44 20 14.44C20.73 14.44 21.45 14.58 22.12 14.86C22.8 15.14 23.41 15.55 23.92 16.07C24.44 16.58 24.85 17.19 25.13 17.87C25.41 18.54 25.55 19.27 25.55 20C25.55 21.47 24.97 22.88 23.92 23.92C22.88 24.97 21.47 25.55 20 25.55C18.52 25.55 17.11 24.97 16.07 23.92C15.03 22.88 14.44 21.47 14.44 20ZM11.44 20C11.44 21.12 11.66 22.23 12.09 23.27C12.52 24.31 13.15 25.25 13.94 26.05C14.74 26.84 15.68 27.47 16.72 27.9C17.76 28.33 18.87 28.55 20 28.55C21.12 28.55 22.23 28.33 23.27 27.9C24.31 27.47 25.25 26.84 26.05 26.05C26.84 25.25 27.47 24.31 27.9 23.27C28.33 22.23 28.55 21.12 28.55 20C28.55 17.73 27.65 15.55 26.05 13.94C24.44 12.34 22.26 11.44 20 11.44C17.73 11.44 15.55 12.34 13.94 13.94C12.34 15.55 11.44 17.73 11.44 20ZM26.89 11.1C26.89 11.49 27.01 11.88 27.23 12.21C27.45 12.54 27.76 12.79 28.13 12.95C28.49 13.1 28.89 13.14 29.28 13.06C29.67 12.98 30.03 12.79 30.31 12.51C30.59 12.23 30.78 11.88 30.85 11.49C30.93 11.1 30.89 10.7 30.74 10.33C30.59 9.97 30.33 9.66 30 9.44C29.67 9.22 29.29 9.1 28.89 9.1C28.36 9.1 27.85 9.31 27.48 9.68C27.1 10.06 26.89 10.57 26.89 11.1ZM13.26 33.56C11.64 33.49 10.75 33.22 10.17 32.99C9.44 32.72 8.79 32.3 8.25 31.74C7.7 31.2 7.27 30.55 7 29.82C6.77 29.24 6.5 28.35 6.43 26.73C6.35 24.97 6.33 24.45 6.33 20C6.33 15.55 6.35 15.02 6.43 13.26C6.5 11.63 6.78 10.75 7 10.16C7.31 9.39 7.67 8.83 8.25 8.25C8.83 7.66 9.39 7.3 10.17 7C10.75 6.77 11.64 6.5 13.26 6.43C15.02 6.34 15.55 6.33 20 6.33C24.45 6.33 24.97 6.34 26.73 6.43C28.36 6.5 29.24 6.77 29.83 7C30.6 7.3 31.16 7.66 31.74 8.25C32.33 8.83 32.69 9.38 32.99 10.16C33.22 10.75 33.49 11.63 33.56 13.26C33.64 15.02 33.66 15.54 33.66 19.99C33.66 24.44 33.64 24.97 33.56 26.73C33.49 28.35 33.22 29.24 32.99 29.82C32.72 30.55 32.3 31.2 31.74 31.74C31.21 32.29 30.55 32.72 29.83 32.99C29.24 33.22 28.36 33.49 26.73 33.56C24.97 33.64 24.45 33.66 20 33.66C15.55 33.66 15.02 33.64 13.26 33.56L13.26 33.56ZM13.12 3.43C11.35 3.51 10.14 3.79 9.08 4.2C7.97 4.62 6.96 5.28 6.13 6.12C5.28 6.96 4.62 7.97 4.2 9.08C3.79 10.14 3.51 11.35 3.43 13.12C3.35 14.9 3.33 15.47 3.33 20C3.33 24.52 3.35 25.09 3.43 26.87C3.51 28.64 3.79 29.85 4.2 30.91C4.62 32.02 5.28 33.03 6.13 33.86C6.96 34.71 7.97 35.37 9.08 35.79C10.14 36.2 11.35 36.48 13.12 36.56C14.9 36.64 15.47 36.66 20 36.66C24.52 36.66 25.09 36.64 26.87 36.56C28.64 36.48 29.85 36.2 30.91 35.79C32.02 35.37 33.03 34.71 33.86 33.86C34.71 33.03 35.37 32.02 35.79 30.91C36.2 29.85 36.48 28.64 36.56 26.87C36.64 25.09 36.66 24.52 36.66 20C36.66 15.47 36.64 14.9 36.56 13.12C36.48 11.35 36.2 10.14 35.79 9.08C35.37 7.97 34.71 6.96 33.86 6.12C33.03 5.28 32.02 4.62 30.91 4.2C29.85 3.79 28.64 3.51 26.87 3.43C25.09 3.35 24.52 3.33 20 3.33C15.47 3.33 14.9 3.35 13.12 3.43L13.12 3.43Z" fill="#F5F5F5" fill-opacity="1.000000" fill-rule="nonzero"/>
		<path id="Vector" d="M14.44 20C14.44 19.27 14.58 18.54 14.86 17.87C15.14 17.19 15.55 16.58 16.07 16.07C16.58 15.55 17.2 15.14 17.87 14.86C18.54 14.58 19.27 14.44 20 14.44C20.73 14.44 21.45 14.58 22.12 14.86C22.8 15.14 23.41 15.55 23.92 16.07C24.44 16.58 24.85 17.19 25.13 17.87C25.41 18.54 25.55 19.27 25.55 20C25.55 21.47 24.97 22.88 23.92 23.92C22.88 24.97 21.47 25.55 20 25.55C18.52 25.55 17.11 24.97 16.07 23.92C15.03 22.88 14.44 21.47 14.44 20ZM11.44 20C11.44 21.12 11.66 22.23 12.09 23.27C12.52 24.31 13.15 25.25 13.94 26.05C14.74 26.84 15.68 27.47 16.72 27.9C17.76 28.33 18.87 28.55 20 28.55C21.12 28.55 22.23 28.33 23.27 27.9C24.31 27.47 25.25 26.84 26.05 26.05C26.84 25.25 27.47 24.31 27.9 23.27C28.33 22.23 28.55 21.12 28.55 20C28.55 17.73 27.65 15.55 26.05 13.94C24.44 12.34 22.26 11.44 20 11.44C17.73 11.44 15.55 12.34 13.94 13.94C12.34 15.55 11.44 17.73 11.44 20ZM26.89 11.1C26.89 11.49 27.01 11.88 27.23 12.21C27.45 12.54 27.76 12.79 28.13 12.95C28.49 13.1 28.89 13.14 29.28 13.06C29.67 12.98 30.03 12.79 30.31 12.51C30.59 12.23 30.78 11.88 30.85 11.49C30.93 11.1 30.89 10.7 30.74 10.33C30.59 9.97 30.33 9.66 30 9.44C29.67 9.22 29.29 9.1 28.89 9.1C28.36 9.1 27.85 9.31 27.48 9.68C27.1 10.06 26.89 10.57 26.89 11.1ZM13.26 33.56C11.64 33.49 10.75 33.22 10.17 32.99C9.44 32.72 8.79 32.3 8.25 31.74C7.7 31.2 7.27 30.55 7 29.82C6.77 29.24 6.5 28.35 6.43 26.73C6.35 24.97 6.33 24.45 6.33 20C6.33 15.55 6.35 15.02 6.43 13.26C6.5 11.63 6.78 10.75 7 10.16C7.31 9.39 7.67 8.83 8.25 8.25C8.83 7.66 9.39 7.3 10.17 7C10.75 6.77 11.64 6.5 13.26 6.43C15.02 6.34 15.55 6.33 20 6.33C24.45 6.33 24.97 6.34 26.73 6.43C28.36 6.5 29.24 6.77 29.83 7C30.6 7.3 31.16 7.66 31.74 8.25C32.33 8.83 32.69 9.38 32.99 10.16C33.22 10.75 33.49 11.63 33.56 13.26C33.64 15.02 33.66 15.54 33.66 19.99C33.66 24.44 33.64 24.97 33.56 26.73C33.49 28.35 33.22 29.24 32.99 29.82C32.72 30.55 32.3 31.2 31.74 31.74C31.21 32.29 30.55 32.72 29.83 32.99C29.24 33.22 28.36 33.49 26.73 33.56C24.97 33.64 24.45 33.66 20 33.66C15.55 33.66 15.02 33.64 13.26 33.56L13.26 33.56ZM13.12 3.43C11.35 3.51 10.14 3.79 9.08 4.2C7.97 4.62 6.96 5.28 6.13 6.12C5.28 6.96 4.62 7.97 4.2 9.08C3.79 10.14 3.51 11.35 3.43 13.12C3.35 14.9 3.33 15.47 3.33 20C3.33 24.52 3.35 25.09 3.43 26.87C3.51 28.64 3.79 29.85 4.2 30.91C4.62 32.02 5.28 33.03 6.13 33.86C6.96 34.71 7.97 35.37 9.08 35.79C10.14 36.2 11.35 36.48 13.12 36.56C14.9 36.64 15.47 36.66 20 36.66C24.52 36.66 25.09 36.64 26.87 36.56C28.64 36.48 29.85 36.2 30.91 35.79C32.02 35.37 33.03 34.71 33.86 33.86C34.71 33.03 35.37 32.02 35.79 30.91C36.2 29.85 36.48 28.64 36.56 26.87C36.64 25.09 36.66 24.52 36.66 20C36.66 15.47 36.64 14.9 36.56 13.12C36.48 11.35 36.2 10.14 35.79 9.08C35.37 7.97 34.71 6.96 33.86 6.12C33.03 5.28 32.02 4.62 30.91 4.2C29.85 3.79 28.64 3.51 26.87 3.43C25.09 3.35 24.52 3.33 20 3.33C15.47 3.33 14.9 3.35 13.12 3.43L13.12 3.43Z" fill="#F5F5F5" fill-opacity="1.000000" fill-rule="nonzero"/>
	</g>
</svg>
