<svg width="40.000000" height="40.000000" viewBox="0 0 40 40" fill="none" xmlns="http://www.w3.org/2000/svg" xmlns:xlink="http://www.w3.org/1999/xlink">
	<desc>
			Created with Pixso.
	</desc>
	<defs>
		<clipPath id="clip55_195">
			<rect id="Telegram icon" rx="0.000000" width="39.000000" height="39.000000" transform="translate(0.500000 0.500000)" fill="white" fill-opacity="0"/>
		</clipPath>
	</defs>
	<rect id="Telegram icon" rx="0.000000" width="39.000000" height="39.000000" transform="translate(0.500000 0.500000)" fill="#FFFFFF" fill-opacity="0"/>
	<g clip-path="url(#clip55_195)">
		<path id="Vector" d="M27.43 14.74L25.62 26.37C25.59 26.53 25.53 26.68 25.43 26.81C25.33 26.94 25.2 27.04 25.05 27.11C24.91 27.18 24.74 27.21 24.58 27.2C24.42 27.19 24.26 27.13 24.13 27.05L18.04 23.24C17.92 23.16 17.81 23.05 17.73 22.92C17.65 22.8 17.6 22.65 17.59 22.51C17.57 22.36 17.59 22.21 17.64 22.07C17.69 21.93 17.78 21.8 17.89 21.7L22.93 16.86C22.99 16.81 22.92 16.72 22.86 16.76L15.54 21.14C15.1 21.4 14.59 21.49 14.09 21.39L11.44 20.88C10.48 20.7 10.35 19.38 11.25 19.01L25.42 13.15C25.66 13.05 25.92 13.02 26.18 13.05C26.44 13.09 26.69 13.19 26.89 13.35C27.1 13.52 27.26 13.73 27.35 13.97C27.45 14.22 27.48 14.48 27.43 14.74L27.43 14.74Z" fill="#F5F5F5" fill-opacity="1.000000" fill-rule="nonzero"/>
		<path id="Vector" d="M20 2.84C10.52 2.84 2.84 10.52 2.84 20C2.84 29.47 10.52 37.15 20 37.15C29.47 37.15 37.15 29.47 37.15 20C37.15 10.52 29.47 2.84 20 2.84ZM5.78 20C5.78 18.13 6.15 16.28 6.86 14.55C7.58 12.83 8.62 11.26 9.94 9.94C11.26 8.62 12.83 7.57 14.55 6.86C16.28 6.15 18.13 5.78 20 5.78C21.86 5.78 23.71 6.15 25.44 6.86C27.16 7.57 28.73 8.62 30.05 9.94C31.37 11.26 32.41 12.83 33.13 14.55C33.84 16.28 34.21 18.13 34.21 20C34.21 23.77 32.71 27.38 30.05 30.05C27.38 32.71 23.77 34.21 20 34.21C16.22 34.21 12.61 32.71 9.94 30.05C7.28 27.38 5.78 23.77 5.78 20Z" fill="#F5F5F5" fill-opacity="1.000000" fill-rule="evenodd"/>
	</g>
</svg>
