<svg width="40.000000" height="40.000000" viewBox="0 0 40 40" fill="none" xmlns="http://www.w3.org/2000/svg" xmlns:xlink="http://www.w3.org/1999/xlink">
	<desc>
			Created with Pixso.
	</desc>
	<defs>
		<clipPath id="clip55_197">
			<rect id="Whatsapp icon" rx="0.000000" width="39.000000" height="39.000000" transform="translate(0.500000 0.500000)" fill="white" fill-opacity="0"/>
		</clipPath>
	</defs>
	<rect id="Whatsapp icon" rx="0.000000" width="39.000000" height="39.000000" transform="translate(0.500000 0.500000)" fill="#FFFFFF" fill-opacity="0"/>
	<g clip-path="url(#clip55_197)">
		<path id="Vector" d="M31.75 8.18C30.22 6.64 28.4 5.41 26.39 4.58C24.38 3.75 22.23 3.32 20.06 3.33C10.96 3.33 3.54 10.75 3.54 19.85C3.54 22.76 4.31 25.6 5.75 28.1L3.41 36.66L12.16 34.36C14.58 35.68 17.29 36.38 20.06 36.38C29.16 36.38 36.58 28.96 36.58 19.86C36.58 15.45 34.86 11.3 31.75 8.18ZM20.06 33.58C17.6 33.58 15.18 32.91 13.06 31.66L12.56 31.36L7.36 32.73L8.75 27.66L8.41 27.14C7.04 24.96 6.31 22.43 6.31 19.85C6.31 12.28 12.48 6.11 20.04 6.11C23.71 6.11 27.16 7.55 29.75 10.14C31.02 11.42 32.04 12.93 32.73 14.6C33.42 16.27 33.77 18.06 33.76 19.86C33.79 27.43 27.63 33.58 20.06 33.58ZM27.6 23.31C27.18 23.11 25.14 22.11 24.78 21.96C24.39 21.83 24.13 21.76 23.85 22.16C23.56 22.58 22.78 23.51 22.54 23.78C22.31 24.06 22.06 24.1 21.64 23.88C21.23 23.68 19.89 23.23 18.33 21.83C17.1 20.73 16.28 19.38 16.03 18.96C15.79 18.54 16 18.33 16.21 18.11C16.39 17.93 16.63 17.63 16.83 17.39C17.03 17.16 17.11 16.98 17.25 16.71C17.38 16.43 17.31 16.2 17.21 16C17.11 15.8 16.28 13.76 15.95 12.93C15.61 12.13 15.26 12.23 15.01 12.21L14.21 12.21C13.93 12.21 13.5 12.31 13.11 12.73C12.75 13.14 11.68 14.14 11.68 16.18C11.68 18.21 13.16 20.18 13.36 20.45C13.56 20.73 16.28 24.89 20.41 26.68C21.39 27.11 22.16 27.36 22.76 27.55C23.75 27.86 24.64 27.81 25.36 27.71C26.16 27.6 27.81 26.71 28.14 25.75C28.5 24.78 28.5 23.96 28.38 23.78C28.26 23.6 28.01 23.51 27.6 23.31Z" fill="#F5F5F5" fill-opacity="1.000000" fill-rule="nonzero"/>
	</g>
</svg>
